<svg version="1.1" id="Layer_1" xmlns:x="ns_extend;" xmlns:i="ns_ai;" xmlns:graph="ns_graphs;" xmlns="http://www.w3.org/2000/svg" xmlns:xlink="http://www.w3.org/1999/xlink" x="0px" y="0px" viewBox="0 0 210 47" style="enable-background:new 0 0 210 47;" xml:space="preserve">
 <style type="text/css">
  .st0{fill:#1F1F30;}
	.st1{fill-rule:evenodd;clip-rule:evenodd;fill:#1F1F30;}
 </style>
 <metadata>
  <sfw xmlns="ns_sfw;">
   <slices>
   </slices>
   <sliceSourceBounds bottomLeftOrigin="true" height="46.3" width="210" x="0" y="0.7">
   </sliceSourceBounds>
  </sfw>
 </metadata>
 <g>
  <path class="st0" d="M23.1,0C10.4,0,0,10.3,0,23v0.1c0,12.8,10.4,23.1,23.1,23.1c12.8,0,23.1-10.4,23.1-23.1
		C46.3,10.4,35.9,0,23.1,0z M17.3,2.2c1.7-0.5,3.6-0.8,5.5-0.8c0.1,0,0.2,0,0.3,0s0.2,0,0.3,0c3,0.1,5.5,2,6.6,4.6
		c0.2,0.6,0.4,1.1,0.5,1.7c0.1,0.3,0.1,0.7,0.1,1.1c0,1.7-0.6,3.2-1.5,4.5c-1-0.6-2.1-1-3.2-1.3c0.9-0.8,1.4-1.9,1.4-3.1
		c0-0.9-0.3-1.7-0.8-2.4c-0.8-1-2-1.7-3.4-1.7c-2.4,0-4.7,0.5-6.9,1.3c-0.6,0.2-1.2,0.5-1.7,0.8c-3.3,1.7-6,4.4-7.7,7.7
		c-1.8,0.4-3.4,1.4-4.6,2.8C4.3,10,10,4.2,17.3,2.2z M32,8.5c2.4,1.4,4.4,3.4,5.8,5.8c-0.1,0-0.2,0-0.3,0c-2,0-3.8,0.6-5.2,1.7
		c-0.6-0.7-1.2-1.4-2-2c1.1-1.5,1.7-3.3,1.7-5.2C32,8.7,32,8.6,32,8.5z M39.9,19.7c-0.7-0.5-1.5-0.8-2.4-0.8c-1.3,0-2.4,0.5-3.1,1.4
		c-0.7,0.7-1,1.7-1,2.8c0,1.8-0.5,3.5-1.3,5c-0.2,0.4-0.5,0.8-0.8,1.2c-0.5,0.7-1.2,1.3-1.8,1.8c-0.8-0.8-1.8-1.5-3-1.9
		c1.2-0.6,2.2-1.6,2.9-2.9c0.5-0.9,0.8-2.1,0.8-3.2c0-1.9,0.7-3.7,1.9-5c0.3-0.3,0.7-0.7,1-1c1.3-0.9,2.8-1.5,4.5-1.5
		c0.4,0,0.8,0,1.1,0.1C39.2,17,39.6,18.3,39.9,19.7z M40.2,23c0,0,0,0.1,0,0.1c0,0,0,0.1,0,0.1c-0.1,1.5-1.3,2.7-2.8,2.7
		c-1.5,0-2.8-1.3-2.8-2.8c0-1.5,1.3-2.8,2.8-2.8C38.9,20.3,40.2,21.5,40.2,23z M30.3,32.2c0.7-0.6,1.4-1.2,2-2
		c1.5,1.1,3.3,1.7,5.2,1.7c0.1,0,0.2,0,0.3,0c-1.4,2.4-3.4,4.4-5.8,5.8c0-0.1,0-0.2,0-0.3C32,35.5,31.3,33.6,30.3,32.2z M25.9,34.3
		c-0.7-0.7-1.7-1-2.8-1c-1.8,0-3.5-0.5-5-1.3c-0.4-0.2-0.8-0.5-1.2-0.8c-0.7-0.5-1.3-1.2-1.8-1.8c0.8-0.8,1.5-1.8,2-3
		c0.6,1.2,1.6,2.2,2.9,2.9c0.9,0.5,2.1,0.8,3.2,0.8c1.9,0,3.7,0.7,5,1.9c0.3,0.3,0.7,0.7,1,1c0.9,1.3,1.5,2.8,1.5,4.5
		c0,0.4,0,0.7-0.1,1.1c-1.3,0.6-2.6,1-4,1.3c0.5-0.7,0.8-1.5,0.8-2.4C27.3,36.2,26.8,35.1,25.9,34.3z M25.9,37.4
		c0,1.4-1.1,2.6-2.5,2.8c-0.1,0-0.2,0-0.3,0c-0.1,0-0.2,0-0.3,0c-1.4-0.1-2.5-1.3-2.5-2.8c0-1.5,1.3-2.8,2.8-2.8
		C24.7,34.7,25.9,35.9,25.9,37.4z M14.3,37.7c-2.4-1.4-4.4-3.5-5.8-5.8c0.1,0,0.2,0,0.3,0c2,0,3.8-0.6,5.2-1.7c0.6,0.7,1.3,1.4,2,2
		c-1.1,1.5-1.7,3.3-1.7,5.2C14.3,37.6,14.3,37.7,14.3,37.7z M8.8,27.3c1.2,0,2.3-0.5,3.1-1.4c0,0,0.1-0.1,0.1-0.1
		c0.1-0.1,0.1-0.2,0.2-0.3c0,0,0.1-0.1,0.1-0.1c0,0,0-0.1,0.1-0.1c0-0.1,0.1-0.1,0.1-0.2c0,0,0,0,0,0c0,0,0-0.1,0.1-0.1
		c0-0.1,0-0.1,0.1-0.2c0,0,0-0.1,0-0.1c0,0,0-0.1,0-0.1c0-0.1,0-0.2,0.1-0.2c0,0,0,0,0,0c0,0,0-0.1,0-0.1c0,0,0-0.1,0-0.1v0
		c0,0,0-0.1,0-0.1c0,0,0-0.1,0-0.1c0-0.1,0-0.1,0-0.2c0,0,0-0.1,0-0.1c0-0.1,0-0.1,0-0.2v0c0-1.8,0.5-3.5,1.3-5
		c0.2-0.4,0.5-0.8,0.8-1.2c0.5-0.7,1.1-1.3,1.8-1.8c0.8,0.8,1.8,1.5,3,2c-1.2,0.6-2.2,1.6-2.9,2.9c-0.5,0.9-0.8,2-0.8,3.2v0
		c0,1.9-0.8,3.7-2,5c-0.3,0.3-0.7,0.7-1,0.9c-1.3,0.9-2.8,1.5-4.4,1.5c-0.4,0-0.8,0-1.2-0.1c-0.6-1.3-1-2.6-1.3-4
		C7.1,27,7.9,27.3,8.8,27.3z M6,23.1C6,23,6,23,6,22.9c0.1-1.5,1.3-2.7,2.8-2.7c1.5,0,2.8,1.3,2.8,2.8v0c0,1.5-1.3,2.7-2.8,2.7
		C7.3,25.9,6.1,24.7,6,23.1z M16,14.1c-0.7,0.6-1.4,1.2-1.9,1.9c-1.5-1.1-3.3-1.7-5.3-1.7c-0.1,0-0.2,0-0.3,0
		c1.4-2.3,3.4-4.3,5.8-5.8c0,0.1,0,0.2,0,0.3C14.3,10.8,14.9,12.6,16,14.1z M20.4,12c0.7,0.7,1.7,1,2.8,1c1.8,0,3.5,0.5,5,1.3
		c0.4,0.2,0.8,0.5,1.2,0.8c0.7,0.5,1.3,1.2,1.8,1.8c-0.8,0.8-1.5,1.8-1.9,3c-0.6-1.2-1.6-2.2-2.9-2.9c-0.9-0.5-2.1-0.8-3.2-0.8
		c-1.9,0-3.7-0.7-5-1.9c-0.3-0.3-0.7-0.7-1-1c-0.9-1.3-1.5-2.8-1.5-4.5c0-0.4,0-0.8,0.1-1.1c1.3-0.6,2.6-1,4-1.3
		C19.3,7.1,19,8,19,8.9C18.9,10.1,19.5,11.2,20.4,12z M20.3,8.8c0-1.5,1.2-2.7,2.7-2.8c0,0,0.1,0,0.1,0c0,0,0.1,0,0.1,0
		c1.5,0.1,2.7,1.3,2.7,2.8c0,1.5-1.3,2.8-2.8,2.8C21.6,11.6,20.3,10.4,20.3,8.8z M28.6,23.1c0,3-2.4,5.5-5.5,5.5s-5.5-2.4-5.5-5.5v0
		c0-3,2.5-5.4,5.5-5.4S28.6,20.1,28.6,23.1z M2.2,28.9c-0.5-1.7-0.7-3.6-0.8-5.4c0-0.1,0-0.2,0-0.3v-0.1c0-0.1,0-0.2,0-0.3
		c0.1-3,2-5.5,4.6-6.6c0.6-0.2,1.1-0.4,1.7-0.5c0.3-0.1,0.7-0.1,1.1-0.1c1.7,0,3.2,0.6,4.5,1.5c-0.6,1-1,2.1-1.3,3.2
		c-0.8-0.9-1.9-1.4-3.1-1.4c-0.9,0-1.7,0.3-2.4,0.8c-1,0.8-1.7,2-1.7,3.3v0.1c0,2.4,0.5,4.7,1.3,6.8c0.2,0.6,0.5,1.2,0.8,1.7
		c1.7,3.3,4.5,6.1,7.8,7.8c0.4,1.8,1.4,3.4,2.8,4.6C10,42.1,4.2,36.2,2.2,28.9z M29,44.1c-1.7,0.5-3.6,0.8-5.5,0.8
		c-0.1,0-0.2,0-0.3,0c-0.1,0-0.2,0-0.3,0c-3-0.1-5.5-2-6.6-4.6c-0.2-0.6-0.4-1.1-0.5-1.7c-0.1-0.3-0.1-0.7-0.1-1.1
		c0-1.7,0.6-3.2,1.5-4.5c1,0.6,2.1,1,3.2,1.3C19.5,35,19,36.2,19,37.4c0,0.9,0.3,1.7,0.8,2.4c0.7,1,1.8,1.6,3,1.7h0
		c0.1,0,0.2,0,0.3,0c0.1,0,0.2,0,0.3,0h0c2.3,0,4.5-0.5,6.5-1.3c0.6-0.2,1.2-0.5,1.7-0.8c3.3-1.7,6-4.5,7.8-7.8
		c1.8-0.4,3.4-1.4,4.6-2.8C42.1,36.3,36.3,42.1,29,44.1z M44.9,23.1c0,0.1,0,0.2,0,0.3c-0.1,3-2,5.5-4.6,6.6
		c-0.6,0.2-1.1,0.4-1.7,0.5c-0.3,0.1-0.7,0.1-1.1,0.1c-1.7,0-3.2-0.6-4.4-1.5c0.6-1,1-2.1,1.3-3.2c0.8,0.9,1.9,1.4,3.1,1.4
		c0.9,0,1.7-0.3,2.4-0.8c1-0.8,1.7-2,1.7-3.4c0-2.4-0.5-4.7-1.3-6.9c-0.2-0.6-0.5-1.2-0.8-1.7c-1.7-3.3-4.5-6-7.8-7.8
		c-0.4-1.8-1.4-3.4-2.8-4.6c7.3,2,13.1,7.8,15.1,15.1c0.5,1.7,0.8,3.6,0.8,5.5C44.9,22.9,44.9,23,44.9,23.1z">
  </path>
  <path class="st1" d="M67.1,13.8h4.8L76.4,26h0.1l4.4-12.2h4.8V31h-3V17.2h0L77.4,31h-2.1l-5.1-13.8h0V31h-2.9V13.8z M94,13.8h11.4
		v2.7h-8.3v4.4h7.9v2.6h-7.9v4.9h8.8V31H94V13.8z M119,21.2c0.4,0,0.9,0,1.3-0.1c0.4-0.1,0.8-0.2,1.2-0.4c0.3-0.2,0.6-0.4,0.9-0.8
		c0.2-0.3,0.3-0.8,0.3-1.3c0-0.5-0.1-0.9-0.3-1.2c-0.2-0.3-0.5-0.5-0.8-0.7c-0.3-0.2-0.7-0.3-1.1-0.4c-0.4-0.1-0.8-0.1-1.2-0.1h-2.8
		v4.8H119z M113.4,13.8h6c0.8,0,1.6,0.1,2.4,0.3c0.8,0.2,1.4,0.4,2,0.8c0.6,0.4,1.1,0.9,1.4,1.5c0.4,0.6,0.5,1.4,0.5,2.3
		c0,1.2-0.4,2.3-1.1,3c-0.7,0.8-1.7,1.3-2.9,1.6l4.6,7.6h-3.7l-4-7.3h-2.2V31h-3.1V13.8z M145.7,17.8c-0.5-0.6-1-1.1-1.8-1.3
		c-0.7-0.3-1.4-0.4-2.1-0.4c-0.9,0-1.7,0.2-2.4,0.5c-0.7,0.3-1.4,0.8-1.9,1.3c-0.5,0.6-0.9,1.2-1.2,2c-0.3,0.8-0.4,1.6-0.4,2.5
		c0,0.9,0.1,1.8,0.4,2.6c0.3,0.8,0.7,1.4,1.2,2c0.5,0.6,1.1,1,1.8,1.3c0.7,0.3,1.5,0.5,2.4,0.5c0.9,0,1.7-0.2,2.5-0.5
		c0.7-0.4,1.3-0.8,1.7-1.4l2.5,1.7c-0.8,1-1.7,1.7-2.8,2.2c-1.1,0.5-2.4,0.8-3.9,0.8c-1.3,0-2.6-0.2-3.7-0.7
		c-1.1-0.4-2.1-1.1-2.9-1.9c-0.8-0.8-1.4-1.8-1.9-2.9c-0.5-1.1-0.7-2.3-0.7-3.7c0-1.4,0.2-2.6,0.7-3.7c0.5-1.1,1.1-2.1,2-2.8
		c0.8-0.8,1.8-1.4,2.9-1.8c1.1-0.4,2.4-0.6,3.7-0.6c0.6,0,1.1,0.1,1.7,0.2c0.6,0.1,1.2,0.3,1.7,0.5c0.6,0.2,1.1,0.5,1.6,0.8
		c0.5,0.3,0.9,0.7,1.2,1.2L145.7,17.8z M168.4,24.7c0,1-0.2,2-0.5,2.8c-0.4,0.8-0.8,1.5-1.5,2.1c-0.6,0.6-1.3,1-2.2,1.3
		c-0.8,0.3-1.8,0.5-2.7,0.5s-1.9-0.2-2.7-0.5c-0.8-0.3-1.6-0.8-2.2-1.3c-0.6-0.6-1.1-1.3-1.5-2.1s-0.5-1.8-0.5-2.8V13.8h3.1v10.8
		c0,0.5,0.1,1,0.2,1.5c0.1,0.5,0.3,0.9,0.6,1.3c0.3,0.4,0.7,0.7,1.2,0.9s1.1,0.4,1.8,0.4s1.3-0.1,1.8-0.4s0.9-0.6,1.2-0.9
		c0.3-0.4,0.5-0.8,0.6-1.3c0.1-0.5,0.2-1,0.2-1.5V13.8h3.1V24.7z M182.2,21.2c0.4,0,0.9,0,1.3-0.1c0.4-0.1,0.8-0.2,1.2-0.4
		c0.3-0.2,0.6-0.4,0.9-0.8c0.2-0.3,0.3-0.8,0.3-1.3c0-0.5-0.1-0.9-0.3-1.2c-0.2-0.3-0.5-0.5-0.8-0.7c-0.3-0.2-0.7-0.3-1.1-0.4
		c-0.4-0.1-0.8-0.1-1.2-0.1h-2.8v4.8H182.2z M176.7,13.8h6c0.8,0,1.6,0.1,2.4,0.3c0.8,0.2,1.4,0.4,2,0.8s1.1,0.9,1.4,1.5
		c0.4,0.6,0.5,1.4,0.5,2.3c0,1.2-0.4,2.3-1.1,3c-0.7,0.8-1.7,1.3-2.9,1.6l4.6,7.6h-3.7l-4-7.3h-2.2V31h-3.1V13.8z M200.5,23.5
		l-6.5-9.7h3.7l4.3,7.2l4.4-7.2h3.5l-6.5,9.7V31h-3.1V23.5z">
  </path>
 </g>
</svg>