<svg width="1302" height="180" viewBox="0 0 1302 180" fill="none" xmlns="http://www.w3.org/2000/svg" xmlns:xlink="http://www.w3.org/1999/xlink">
 <path fill-rule="evenodd" clip-rule="evenodd" d="M374.334 27C339.342 27 310.874 55.6814 310.874 90.934C310.874 126.187 339.023 154.559 373.754 154.878H374.334C409.335 154.878 437.804 126.196 437.804 90.934C437.804 55.6718 409.335 27 374.334 27ZM374.334 129.153C354.302 129.153 339.029 112.01 339.029 90.9437C339.029 69.8771 354.311 52.734 374.334 52.734C394.357 52.734 409.639 69.8771 409.639 90.9437C409.639 112.01 394.366 129.153 374.334 129.153Z" fill="black">
 </path>
 <path fill-rule="evenodd" clip-rule="evenodd" d="M1042.25 59.199C1015.95 59.199 994.545 80.681 994.545 107.082C994.545 133.483 1015.95 154.965 1042.25 154.965C1068.56 154.965 1089.95 133.483 1089.95 107.082C1089.95 80.681 1068.56 59.199 1042.25 59.199ZM1042.25 134.482C1027.89 134.482 1018.26 122.746 1018.26 107.072C1018.26 91.3979 1027.9 79.6619 1042.25 79.6619C1056.6 79.6619 1066.24 91.3979 1066.24 107.072C1066.24 122.746 1056.6 134.482 1042.25 134.482Z" fill="black">
 </path>
 <path fill-rule="evenodd" clip-rule="evenodd" d="M506.028 59.7454C531.047 59.7454 550.168 80.3992 550.168 107.285C550.168 134.348 531.047 155.002 504.062 155.002C492.01 155.002 479.958 150.182 472.253 141.278V178.861H445.804V62.5942H470.823V83.0995C478.122 66.7958 490.594 59.7454 506.028 59.7454ZM472.253 107.285C472.074 123.309 483.511 135.417 498.522 135.417C512.819 135.417 523.362 123.487 523.362 107.285C523.362 91.0822 513.534 79.3309 498.522 79.3309C483.511 79.3309 472.074 91.2602 472.253 107.285Z" fill="black">
 </path>
 <path d="M721.042 58.8826C744.452 58.8826 758.748 75.4412 758.748 102.327V152.537H732.479V104.107C732.479 87.7267 724.616 78.6461 710.677 78.6461C697.989 78.6461 686.015 89.8633 686.015 104.107V152.537H659.567V62.2655H683.513V83.2679C693.118 66.2509 706.771 58.8826 721.042 58.8826Z" fill="black">
 </path>
 <path d="M985.545 102.238C985.545 75.7084 971.07 59.1498 947.481 58.7937C935.59 58.6437 922.811 64.6835 912.455 78.8284V29.5935H886.185V152.448H912.455V104.018C912.455 89.7744 924.607 78.5573 937.295 78.5573C951.413 78.5573 959.276 87.6378 959.276 104.018V152.448H985.545V102.238Z" fill="black">
 </path>
 <path d="M1160.43 58.8826C1183.84 58.8826 1198.14 75.4412 1198.14 102.327V152.537H1171.87V104.107C1171.87 87.7267 1164 78.6461 1150.06 78.6461C1137.38 78.6461 1125.4 89.8633 1125.4 104.107V152.537H1098.95V62.2655H1122.9V83.2679C1132.5 66.2509 1146.16 58.8826 1160.43 58.8826Z" fill="black">
 </path>
 <path fill-rule="evenodd" clip-rule="evenodd" d="M771.749 29.6824H837.691C860.744 29.6824 877.185 46.9532 877.185 71.168C877.185 95.3828 860.744 112.476 837.691 112.476H799.448V152.537H771.749V29.6824ZM830.364 91.4656C841.265 91.4656 848.234 83.6315 848.234 71.168C848.234 58.8825 841.265 51.0483 830.364 51.0483H799.448V91.4656H830.364Z" fill="black">
 </path>
 <path fill-rule="evenodd" clip-rule="evenodd" d="M556.168 107.082C556.168 80.6826 577.571 59.2016 603.873 59.199C630.175 59.2015 651.567 80.6826 651.567 107.082C651.567 109.836 651.335 112.6 650.861 115.305H633.901V115.318H580.96L581.372 116.571C584.054 127.897 592.88 135.512 603.877 135.512C611.864 135.512 618.638 132.381 622.518 126.911H647.286C639.526 143.997 622.644 154.965 603.877 154.965C577.573 154.965 556.168 133.483 556.168 107.082ZM581.211 98.0901L581.333 97.7082C583.966 86.3052 591.802 78.6517 603.877 78.6517C615.952 78.6517 623.779 86.3149 626.412 97.7082L626.534 98.0901H581.211Z" fill="black">
 </path>
 <path d="M603.873 59.199H603.877H603.868H603.873Z" fill="black">
 </path>
 <path fill-rule="evenodd" clip-rule="evenodd" d="M1253.84 59.199C1227.54 59.2015 1206.14 80.6826 1206.14 107.082C1206.14 133.483 1227.54 154.965 1253.84 154.965C1272.61 154.965 1289.49 143.997 1297.25 126.911H1272.49C1268.61 132.381 1261.83 135.512 1253.84 135.512C1241.85 135.512 1234.02 127.897 1231.34 116.571L1230.93 115.318H1283.87V115.305H1300.83C1301.3 112.6 1301.53 109.836 1301.53 107.082C1301.53 80.6826 1280.14 59.2016 1253.84 59.199ZM1231.3 97.7082L1231.18 98.0901H1276.5L1276.38 97.7082C1273.75 86.3149 1265.92 78.6517 1253.84 78.6517C1241.77 78.6517 1233.93 86.3052 1231.3 97.7082Z" fill="black">
 </path>
 <path d="M1253.84 59.199H1253.84H1253.83H1253.84Z" fill="black">
 </path>
 <path d="M157.521 0C198.439 0.00765855 234.207 27.6097 244.579 67.1911C254.951 106.772 237.316 148.369 201.656 168.434C165.996 188.499 121.288 181.982 92.8397 152.572C118.339 142.259 135.029 117.504 135.029 89.9987C135.029 62.4931 118.339 37.7387 92.8397 27.4253C109.592 10.067 132.617 0.191351 156.717 0.00269762L157.521 0ZM13.8404 49.0465C32.2943 24.8633 64.6429 16.0099 92.8397 27.4253C59.0876 62.3137 59.0876 117.684 92.8397 152.572C64.6429 163.988 32.2943 155.134 13.8404 130.951C-4.61347 106.768 -4.61347 73.2296 13.8404 49.0465Z" fill="#6439F5">
 </path>
</svg>