<?xml version="1.0" encoding="UTF-8"?>
<svg id="Layer_1" xmlns="http://www.w3.org/2000/svg" version="1.1" viewBox="0 0 1024 333.77">
  <!-- Generator: Adobe Illustrator 30.0.0, SVG Export Plug-In . SVG Version: 2.1.1 Build 123)  -->
  <defs>
    <style>
      .st0 {
        fill: #1c3ee9;
      }
    </style>
  </defs>
  <g>
    <path class="st0" d="M245.51,166.71l-22.68,39.27h-40.68l-17.11,29.63c-3.51,6.07-9.99,9.82-17,9.82h-59.7l22.77-39.44h25.7l22.68-39.27h86.01Z"/>
    <path class="st0" d="M265.05,88.35l-22.58,39.09h-60.31l-22.66,39.27-71.15.18,22.66-39.27,25.82-.18,16.89-29.27c3.51-6.08,9.99-9.82,17-9.82h94.33Z"/>
  </g>
  <g>
    <path d="M345.49,108.12c-9.38,0-17.22,1.52-23.52,4.54-6.3,3.03-11.02,7.35-14.14,12.97-3.13,5.62-4.69,12.38-4.69,20.3v.44h-17.15v20.22h17.15v56.72h27.26v-56.72h35.03v-20.22h-35.03v-2.05c0-5.47,1.39-9.48,4.18-12.02,2.78-2.54,7.5-3.81,14.14-3.81,3.42,0,6.64.29,9.67.88,3.03.59,6.01,1.42,8.94,2.49v-20.22c-3.62-1.07-7.08-1.93-10.4-2.56-3.32-.63-7.13-.95-11.43-.95Z"/>
    <path d="M449.69,143c-7.91-3.71-17.15-5.57-27.7-5.57s-19.78,1.86-27.7,5.57c-7.91,3.71-14.07,8.87-18.47,15.46-4.4,6.59-6.59,14.29-6.59,23.08s2.2,16.37,6.59,23.01c4.4,6.65,10.55,11.82,18.47,15.53,7.91,3.71,17.15,5.57,27.7,5.57s19.78-1.86,27.7-5.57c7.91-3.71,14.09-8.87,18.54-15.46,4.44-6.59,6.67-14.24,6.67-22.94s-2.22-16.63-6.67-23.23c-4.45-6.59-10.63-11.75-18.54-15.46ZM444.34,194.14c-2,3.52-4.89,6.23-8.65,8.13-3.76,1.91-8.28,2.86-13.56,2.86s-9.82-.95-13.63-2.86c-3.81-1.91-6.74-4.62-8.79-8.13-2.05-3.52-3.08-7.72-3.08-12.6s1.03-9.11,3.08-12.68c2.05-3.57,4.98-6.3,8.79-8.21,3.81-1.91,8.35-2.86,13.63-2.86s9.79.95,13.56,2.86c3.76,1.9,6.64,4.64,8.65,8.21,2,3.57,3,7.79,3,12.68s-1,9.09-3,12.6Z"/>
    <path d="M581.58,139.77h-27.11v40.3c0,4.79-.85,8.94-2.56,12.46-1.71,3.52-4.13,6.21-7.25,8.06-3.13,1.86-6.94,2.78-11.43,2.78-6.06,0-10.7-1.81-13.92-5.42-3.22-3.61-4.84-8.79-4.84-15.53v-42.65h-27.26v46.6c0,8.01,1.44,14.95,4.32,20.81,2.88,5.86,7.08,10.38,12.6,13.56,5.52,3.17,12.14,4.76,19.86,4.76,6.64,0,12.72-1.56,18.24-4.69,5.52-3.13,10.11-7.74,13.77-13.85.29-.49.57-1,.84-1.51l2.89,17.85h27.26l-5.42-28.43v-55.1Z"/>
    <path d="M680.87,142.26c-5.62-3.22-12.43-4.84-20.45-4.84-6.74,0-12.92,1.59-18.54,4.76-5.62,3.18-10.31,7.79-14.07,13.85-.36.57-.69,1.17-1.02,1.77l-3.01-18.04h-27.11l5.28,28.43v55.1h27.26v-40.3c0-4.79.88-8.91,2.64-12.38,1.76-3.47,4.3-6.16,7.62-8.06,3.32-1.9,7.23-2.86,11.72-2.86,6.35,0,11.23,1.78,14.66,5.35,3.42,3.57,5.13,8.82,5.13,15.75v42.5h27.26v-46.6c0-8.11-1.49-15.07-4.47-20.88-2.98-5.81-7.28-10.33-12.89-13.56Z"/>
    <path d="M794.23,110.46l-5.44,47.42c-4.12-6.37-9.24-11.37-15.37-14.96-6.25-3.66-13.29-5.5-21.1-5.5-8.21,0-15.41,1.86-21.61,5.57-6.21,3.71-11.07,8.87-14.58,15.46-3.52,6.59-5.28,14.29-5.28,23.08s1.76,16.49,5.28,23.08c3.52,6.59,8.38,11.75,14.58,15.46,6.2,3.71,13.41,5.57,21.61,5.57s14.85-1.83,21.1-5.5c6.21-3.64,11.36-8.72,15.45-15.25l2.14,18.4h28.14l-4.98-43.82,8.35-69.03h-28.29ZM772.46,201.69c-3.86,2-7.94,3-12.24,3s-8.09-1-11.36-3c-3.28-2-5.84-4.74-7.69-8.21-1.86-3.47-2.78-7.45-2.78-11.94s.93-8.47,2.78-11.94c1.85-3.47,4.42-6.2,7.69-8.21,3.27-2,7.06-3,11.36-3s8.38,1,12.24,3c3.86,2,7.26,4.74,10.19,8.21,2.93,3.47,5.13,7.45,6.6,11.94-1.47,4.5-3.66,8.48-6.6,11.94-2.93,3.47-6.33,6.21-10.19,8.21Z"/>
    <path d="M928.98,158.46c-4.45-6.59-10.63-11.75-18.54-15.46-7.91-3.71-17.15-5.57-27.7-5.57s-19.79,1.86-27.7,5.57c-7.91,3.71-14.07,8.87-18.46,15.46-4.4,6.59-6.59,14.29-6.59,23.08s2.2,16.37,6.59,23.01c4.4,6.65,10.55,11.82,18.46,15.53,7.91,3.71,17.15,5.57,27.7,5.57s19.78-1.86,27.7-5.57c7.91-3.71,14.09-8.87,18.54-15.46,4.44-6.59,6.67-14.24,6.67-22.94s-2.22-16.63-6.67-23.23ZM905.1,194.14c-2,3.52-4.89,6.23-8.65,8.13-3.76,1.91-8.28,2.86-13.56,2.86s-9.82-.95-13.63-2.86c-3.81-1.91-6.74-4.62-8.79-8.13-2.05-3.52-3.08-7.72-3.08-12.6s1.03-9.11,3.08-12.68c2.05-3.57,4.98-6.3,8.79-8.21,3.81-1.91,8.35-2.86,13.63-2.86s9.79.95,13.56,2.86c3.76,1.9,6.64,4.64,8.65,8.21,2,3.57,3,7.79,3,12.68s-1.01,9.09-3,12.6Z"/>
  </g>
</svg>